<?xml version="1.0" encoding="UTF-8"?>
<svg width="187px" height="187px" viewBox="0 0 187 187" version="1.1" xmlns="http://www.w3.org/2000/svg" xmlns:xlink="http://www.w3.org/1999/xlink">
    <!-- Generator: Sketch 49.3 (51167) - http://www.bohemiancoding.com/sketch -->
    <title>appstore-seeklogo.com</title>
    <desc>Created with Sketch.</desc>
    <defs></defs>
    <g id="Page-1" stroke="none" stroke-width="1" fill="none" fill-rule="evenodd">
        <g id="appstore-seeklogo.com" fill="#FFFFFF" fill-rule="nonzero">
            <path d="M129.605803,107.8 L105,65.1 C105,65.1 98.8,69.9 98.8,79.4 C98.8,88.9 102.7,95.3 102.7,95.3 L133,147.8 C135.3,151.9 140.5,153.3 144.6,150.9 C148.6,148.5 150,143.3 147.7,139.2 L139.402024,124.8 L152,124.8 C156.7,124.8 160.5,121 160.5,116.3 C160.5,111.7 156.7,107.8 152,107.8 L129.605803,107.8 Z M92.5620512,43.6349115 L88.3,36.2 C86,32.2 80.7,30.8 76.7,33.1 C72.7,35.4 71.3,40.7 73.6,44.7 L82.6,60.4 C82.6455289,60.4791807 82.6922333,60.5573425 82.7400799,60.634477 L55.4888889,107.8 L33.2,107.8 C28.5,107.8 24.7,111.6 24.7,116.3 C24.7,121 28.5,124.8 33.2,124.8 L110.4,124.8 C110.4,124.8 114.4,120.8 110.1,114.3 C105.7,107.8 100.2,107.8 100.2,107.8 L75.1,107.8 L111.5,44.8 C113.8,40.7 112.5,35.5 108.4,33.2 C104.3,30.8 99.1,32.2 96.8,36.3 L92.5620512,43.6349115 Z M149,186.7 L37.7,186.7 C16.9,186.7 0,169.7 0,149 L0,37.7 C0,16.9 16.9,0 37.7,0 L149,0 C169.7,0 186.7,16.9 186.7,37.7 L186.7,149 C186.7,169.7 169.7,186.7 149,186.7 Z M37.4,139.1 C35.1,143.2 36.4,148.4 40.5,150.7 C44.6,153.1 49.8,151.7 52.1,147.6 L60.2,133.4 C59.8,131.7 54.6,127.2 49.2,127.2 C44.1,127.2 42.8,129.8 42.8,129.8 L37.4,139.1 Z" id="Combined-Shape"></path>
        </g>
    </g>
</svg>